<?xml version="1.0" standalone="no"?>
<!DOCTYPE svg PUBLIC "-//W3C//DTD SVG 20010904//EN"
 "http://www.w3.org/TR/2001/REC-SVG-20010904/DTD/svg10.dtd">
<svg version="1.0" xmlns="http://www.w3.org/2000/svg"
 width="564.000000pt" height="333.000000pt" viewBox="0 0 564.000000 333.000000"
 preserveAspectRatio="xMidYMid meet">

<g transform="translate(0.000000,333.000000) scale(0.100000,-0.100000)"
fill="#000000" stroke="none">
<path d="M1465 3242 c-44 -19 -212 -93 -373 -163 -161 -71 -327 -143 -370
-160 -42 -17 -80 -34 -84 -38 -5 -4 1 -61 12 -126 11 -66 20 -127 20 -135 0
-8 -22 -26 -48 -41 -26 -14 -126 -67 -222 -118 -217 -116 -292 -160 -286 -170
3 -4 0 -8 -7 -8 -7 0 -29 -10 -49 -22 -32 -19 -36 -26 -28 -42 7 -13 7 -19 0
-19 -5 0 -10 -9 -10 -20 0 -18 4 -17 55 13 30 17 65 41 77 52 13 10 43 30 67
43 24 12 65 35 90 49 25 15 73 41 106 58 33 18 104 56 157 84 53 28 99 48 102
43 3 -5 7 -56 10 -113 l5 -105 -52 -19 c-55 -20 -294 -140 -358 -181 -21 -13
-41 -24 -45 -24 -7 0 -138 -84 -182 -117 -32 -24 -33 -26 -15 -45 12 -14 14
-19 3 -16 -7 2 -15 -6 -17 -17 -3 -16 -2 -17 6 -5 6 8 11 12 11 7 0 -4 11 0
25 9 14 9 22 21 18 27 -3 6 -1 7 5 3 7 -4 31 6 54 22 24 16 58 37 76 46 19 10
30 21 26 28 -4 7 -3 8 5 4 6 -4 43 11 82 33 39 23 73 41 76 41 3 0 17 9 31 19
33 23 227 111 246 111 10 0 16 -21 21 -72 13 -134 41 -260 70 -322 27 -56 50
-63 142 -41 162 38 344 121 533 244 128 83 140 92 135 101 -3 4 2 7 11 6 27
-2 56 48 61 105 2 29 5 55 8 57 11 11 220 74 321 97 187 42 199 51 199 155 0
64 -2 70 -30 94 -16 14 -45 29 -63 32 -36 7 -119 -2 -155 -15 -19 -8 -98 -29
-295 -81 -23 -6 -34 -5 -37 3 -9 27 -22 203 -15 210 13 15 258 96 323 107 105
18 190 47 181 61 -3 5 2 9 10 9 15 0 36 55 36 98 0 58 -70 121 -135 122 -11 0
-111 -23 -223 -51 -112 -28 -205 -49 -207 -47 -3 2 -7 29 -11 59 -3 29 -9 68
-13 85 l-6 31 -80 -35z m42 -315 c2 -288 7 -353 34 -432 10 -33 25 -76 31 -95
18 -55 26 -132 16 -166 -8 -31 -60 -70 -165 -123 -23 -11 -70 -40 -105 -64
-59 -41 -137 -82 -233 -122 -60 -25 -215 -64 -230 -58 -49 18 -93 273 -110
633 -5 107 -6 119 -26 253 -12 79 -5 107 25 107 15 0 145 55 271 115 104 49
300 136 395 176 30 12 59 26 65 31 25 22 30 -22 32 -255z m541 187 c16 -11 22
-25 22 -55 0 -36 -3 -41 -35 -54 -19 -8 -65 -19 -102 -25 -69 -10 -195 -45
-289 -80 -29 -10 -55 -16 -58 -13 -9 9 -7 153 2 153 14 0 138 29 252 58 132
35 177 38 208 16z m62 -514 c25 -25 26 -72 2 -93 -11 -10 -64 -26 -123 -37
-57 -10 -153 -35 -213 -55 -60 -19 -113 -35 -116 -35 -12 0 -34 120 -24 129 5
4 47 18 94 31 86 23 194 55 240 70 49 16 119 11 140 -10z"/>
<path d="M4278 2062 c-45 -9 -60 -128 -17 -139 10 -3 16 -9 13 -14 -3 -5 6 -9
19 -9 27 0 62 33 52 49 -3 6 -1 11 4 11 14 0 14 37 1 45 -6 4 -8 10 -5 14 2 5
-4 16 -15 26 -11 10 -20 14 -20 9 0 -5 -4 -4 -8 1 -4 6 -14 9 -24 7z m8 -38
c-22 -21 -39 -17 -18 4 9 11 20 17 25 15 4 -2 1 -11 -7 -19z m-26 -44 c0 -5
-2 -10 -4 -10 -3 0 -8 5 -11 10 -3 6 -1 10 4 10 6 0 11 -4 11 -10z"/>
<path d="M4498 2063 c-16 -4 -48 -59 -48 -85 0 -7 9 -28 20 -45 48 -79 132 -5
95 84 -14 34 -40 52 -67 46z"/>
<path d="M1314 1807 c-3 -8 -4 -32 -2 -51 3 -30 10 -39 38 -54 l35 -17 3 -299
c3 -323 0 -341 -50 -348 -20 -3 -23 -10 -26 -50 l-3 -47 234 -1 c261 -1 282 3
335 64 52 59 74 171 51 264 -10 44 -23 67 -57 100 l-43 43 30 35 c61 69 67
210 14 287 -49 71 -85 80 -335 85 -189 4 -218 2 -224 -11z m381 -122 c41 -20
58 -53 58 -109 0 -82 -53 -122 -153 -114 l-45 3 -1 95 c-1 111 2 127 25 133
36 10 85 6 116 -8z m11 -350 c41 -17 64 -63 64 -130 0 -100 -46 -149 -138
-149 -77 0 -82 9 -82 159 0 67 3 125 7 128 12 13 113 7 149 -8z"/>
<path d="M2047 1812 c-2 -4 -2 -28 1 -54 3 -39 8 -47 28 -52 14 -4 29 -18 34
-32 11 -28 14 -533 4 -584 -5 -24 -15 -36 -41 -46 -32 -14 -33 -16 -30 -61 l3
-46 271 -2 271 -3 51 152 c48 141 50 152 34 163 -10 7 -23 17 -30 23 -9 7 -20
-6 -44 -50 -44 -83 -112 -145 -184 -165 -56 -17 -97 -14 -122 7 -9 7 -13 50
-13 149 l0 139 31 0 c52 0 67 -15 81 -80 12 -59 13 -60 45 -60 l33 0 0 200 0
200 -34 0 c-32 0 -34 -2 -34 -38 -1 -76 -34 -117 -90 -110 l-27 3 -3 99 c-3
122 5 136 83 136 91 0 147 -37 212 -142 31 -50 33 -50 82 -12 2 2 -16 64 -39
137 l-44 134 -263 0 c-145 1 -264 -2 -266 -5z"/>
<path d="M2767 1811 c-1 -3 -2 -26 -2 -50 0 -42 2 -45 32 -53 23 -6 35 -16 39
-33 3 -14 9 -25 13 -25 3 0 5 -80 4 -177 -6 -438 -4 -425 -63 -437 -28 -5 -30
-8 -30 -55 l0 -49 123 2 122 1 3 47 c3 45 2 46 -32 58 -26 8 -37 19 -45 43
-15 49 -14 520 1 515 10 -4 140 -301 239 -548 46 -115 51 -120 109 -120 l50 0
1 283 c1 155 0 310 -1 343 -1 34 3 80 10 102 9 35 16 43 43 50 30 8 32 11 35
58 l3 49 -123 -1 -123 -1 -3 -46 c-3 -43 -2 -46 35 -63 l38 -19 3 -185 c1
-109 -1 -181 -7 -175 -4 6 -25 51 -46 100 -20 50 -43 104 -50 120 -7 17 -34
83 -60 148 -33 81 -52 117 -64 118 -72 4 -252 4 -254 0z"/>
<path d="M3510 1770 c0 -47 2 -52 29 -61 17 -6 34 -22 40 -37 7 -18 10 -125 8
-308 -2 -261 -3 -283 -21 -303 -11 -12 -27 -21 -38 -21 -15 0 -18 -8 -18 -54
l0 -54 275 2 274 1 7 25 c5 14 8 30 8 35 1 6 4 12 7 15 3 3 21 50 38 104 18
55 35 105 37 111 3 6 -9 21 -25 33 l-29 21 -32 -56 c-48 -84 -117 -148 -181
-167 -69 -21 -92 -20 -120 3 -23 18 -24 24 -24 152 l0 134 32 3 c53 5 71 -12
85 -78 12 -59 13 -60 45 -60 l33 0 0 200 0 200 -35 0 -35 0 0 -50 c0 -60 -31
-100 -77 -100 -42 0 -48 10 -47 75 3 159 6 165 91 165 42 0 67 -6 99 -25 39
-23 106 -97 117 -128 3 -9 9 -8 23 3 15 11 16 11 7 0 -7 -8 -13 -20 -13 -28 0
-10 7 -9 30 5 17 9 30 22 30 27 0 6 -19 65 -41 131 l-42 121 -132 2 c-111 2
-134 0 -138 -12 -4 -10 -13 -13 -22 -9 -11 4 -13 8 -5 13 6 4 -38 8 -97 9 -59
1 -116 4 -125 7 -16 5 -18 -2 -18 -46z"/>
<path d="M4230 1766 c0 -42 2 -45 35 -57 19 -7 38 -22 41 -33 12 -37 6 -607
-6 -621 -6 -8 -25 -17 -41 -20 -27 -6 -29 -10 -29 -56 l0 -49 165 0 165 0 0
49 c0 46 -2 50 -29 56 -16 3 -34 12 -40 19 -8 9 -11 115 -11 317 -1 299 0 304
21 322 12 9 30 17 40 17 16 0 19 8 19 50 l0 50 -165 0 -165 0 0 -44z"/>
<path d="M4707 1783 c-5 -28 -26 -108 -51 -193 l-13 -45 32 -16 32 -17 28 60
c31 66 95 128 132 128 l23 0 0 -309 c0 -297 -1 -309 -21 -335 -12 -15 -30 -26
-45 -26 -22 0 -24 -4 -24 -50 l0 -50 170 0 170 0 0 44 c0 42 -2 45 -35 56 -19
6 -40 20 -45 30 -6 11 -10 143 -10 329 0 342 -3 328 60 296 33 -17 65 -58 100
-126 l24 -47 31 15 32 15 -33 119 c-18 66 -35 126 -38 134 -4 12 -50 14 -259
15 l-255 0 -5 -27z"/>
</g>
</svg>
